<svg xmlns="http://www.w3.org/2000/svg" xmlns:xlink="http://www.w3.org/1999/xlink" version="1.1" x="0px" y="0px" viewBox="0 0 32 40" enable-background="new 0 0 32 32" xml:space="preserve"><path d="M27.639,10.599c-0.351,0.155-0.51,0.564-0.356,0.915c0.743,1.686,1.12,3.482,1.12,5.341c0,7.31-5.947,13.257-13.258,13.257  c-7.31,0-13.257-5.947-13.257-13.257c0-7.311,5.947-13.258,13.257-13.258c1.858,0,3.656,0.378,5.342,1.121  c0.352,0.152,0.76-0.004,0.916-0.355c0.154-0.351-0.005-0.761-0.355-0.916c-1.864-0.821-3.85-1.238-5.902-1.238  C7.07,2.209,0.5,8.779,0.5,16.855C0.5,24.93,7.07,31.5,15.145,31.5c8.076,0,14.646-6.57,14.646-14.645  c0-2.052-0.416-4.038-1.237-5.9C28.398,10.604,27.989,10.446,27.639,10.599z"/><path d="M19.109,9.978c0.163-0.348,0.012-0.761-0.335-0.922c-1.141-0.531-2.361-0.801-3.628-0.801c-4.742,0-8.6,3.858-8.6,8.6  c0,4.742,3.858,8.599,8.6,8.599c4.742,0,8.6-3.857,8.6-8.599c0-1.269-0.271-2.491-0.804-3.633c-0.163-0.349-0.575-0.499-0.922-0.336  c-0.348,0.162-0.498,0.575-0.336,0.922c0.447,0.958,0.673,1.983,0.673,3.047c0,3.976-3.235,7.211-7.212,7.211  c-3.976,0-7.211-3.235-7.211-7.211c0-3.977,3.235-7.212,7.211-7.212c1.063,0,2.087,0.226,3.042,0.67  C18.534,10.476,18.947,10.325,19.109,9.978z"/><path d="M15.326,14.567c0.378,0.035,0.716-0.257,0.745-0.64c0.029-0.382-0.257-0.716-0.639-0.745  c-0.094-0.007-0.19-0.011-0.287-0.011c-2.03,0-3.683,1.652-3.683,3.683c0,2.03,1.652,3.683,3.683,3.683  c2.031,0,3.683-1.652,3.683-3.683c0-0.096-0.003-0.192-0.01-0.287c-0.029-0.382-0.362-0.665-0.745-0.64  c-0.382,0.029-0.669,0.362-0.64,0.745c0.005,0.06,0.007,0.121,0.007,0.182c0,1.265-1.029,2.294-2.295,2.294  c-1.265,0-2.294-1.029-2.294-2.294C12.851,15.528,14.029,14.46,15.326,14.567z"/><path d="M31.441,4.532c-0.116-0.262-0.369-0.438-0.666-0.415l-3.025,0.132l0.131-3.025c0.012-0.286-0.152-0.55-0.414-0.666  c-0.261-0.115-0.567-0.058-0.77,0.145l-4.604,4.604c-0.157,0.157-0.229,0.379-0.194,0.599l0.438,2.776l-7.533,7.532  c-0.271,0.271-0.271,0.71,0,0.981c0.136,0.135,0.313,0.203,0.491,0.203c0.178,0,0.355-0.068,0.491-0.203l7.533-7.532l2.775,0.438  c0.036,0.006,0.072,0.009,0.108,0.009c0.183,0,0.36-0.072,0.491-0.203l4.604-4.604C31.499,5.099,31.557,4.793,31.441,4.532z   M25.961,8.674l-2.276-0.359l-0.359-2.277l3.092-3.092l-0.086,1.999c-0.008,0.195,0.065,0.383,0.203,0.521  c0.138,0.137,0.321,0.211,0.521,0.203l1.999-0.086L25.961,8.674z"/><text x="0" y="47" fill="#000000" font-size="5px" font-weight="bold" font-family="'Helvetica Neue', Helvetica, Arial-Unicode, Arial, Sans-serif">Created by Lena Tran</text><text x="0" y="52" fill="#000000" font-size="5px" font-weight="bold" font-family="'Helvetica Neue', Helvetica, Arial-Unicode, Arial, Sans-serif">from the Noun Project</text></svg>