<?xml version="1.0" encoding="utf-8"?>
<!-- Generator: Adobe Illustrator 17.0.0, SVG Export Plug-In . SVG Version: 6.00 Build 0)  -->
<!DOCTYPE svg PUBLIC "-//W3C//DTD SVG 1.1//EN" "http://www.w3.org/Graphics/SVG/1.1/DTD/svg11.dtd">
<svg version="1.1" id="Layer_1" xmlns="http://www.w3.org/2000/svg" xmlns:xlink="http://www.w3.org/1999/xlink" x="0px" y="0px"
	 width="133.491px" height="66.746px" viewBox="0 0 133.491 66.746" enable-background="new 0 0 133.491 66.746"
	 xml:space="preserve">
<rect x="0" y="0" fill="#010101" width="133.491" height="66.746"/>
<path fill="#FFFFFF" d="M109.316,18.594c-0.475-0.304-1.066-0.455-1.775-0.455c-0.526,0-0.936,0.076-1.228,0.228
	c-0.294,0.152-0.572,0.4-0.834,0.744L93.708,34.627L82.028,19.111c-0.263-0.344-0.556-0.592-0.88-0.744
	c-0.323-0.152-0.759-0.228-1.304-0.228c-0.708,0-1.3,0.152-1.775,0.455c-0.475,0.304-0.712,0.779-0.712,1.427v9.067l4.221,6.749
	V25.669l10.068,13.208c0.464,0.587,1.142,0.881,2.032,0.881c0.89,0,1.567-0.294,2.032-0.881l10.098-13.208v13.633h4.221V20.022
	C110.028,19.374,109.791,18.898,109.316,18.594z M26.075,50.744h-1.112v5.898h4.146v-1.028h-3.034V50.744z M39.877,54.224h1.508
	v1.045c-0.463,0.371-0.868,0.472-1.331,0.472c-1.466,0-2.031-1.003-2.031-1.972c0-1.213,0.767-2.174,2.031-2.174
	c0.514,0,1.104,0.211,1.5,0.59l0.691-0.708c-0.607-0.598-1.399-0.902-2.191-0.902c-2.081,0-3.117,1.533-3.117,3.193
	c0,1.55,0.901,3.008,3.117,3.008c1.037,0,1.77-0.396,2.351-1.062V53.23h-2.528V54.224z M52.936,50.744h-1.112v5.898h4.146v-1.028
	h-3.034V50.744z M46.364,50.744l-2.646,5.898h1.205l0.506-1.112h3.084l0.498,1.112h1.213l-2.646-5.898H46.364z M45.875,54.494
	l1.095-2.511l1.096,2.511H45.875z M30.886,56.642h4.415v-1.095H31.99v-1.331h3.194v-1.036H31.99v-1.356h3.312v-1.079h-4.415V56.642z
	 M78.263,52.699c0-1.02-0.733-1.946-2.123-1.955c-0.936,0-1.871-0.008-2.806-0.008v5.907h1.113v-1.972h1.07l1.719,1.972h1.323
	v-0.076l-1.787-2.014C77.892,54.325,78.263,53.508,78.263,52.699z M74.446,53.668V51.78h1.694c0.699,0,1.011,0.472,1.011,0.944
	c0,0.472-0.303,0.944-1.011,0.944H74.446z M93.496,55.732c-1.458,0-2.022-1.019-2.031-1.997c-0.008-0.986,0.607-2.048,2.031-2.048
	c0.514,0,1.037,0.177,1.424,0.556l0.742-0.716c-0.607-0.598-1.365-0.902-2.166-0.902c-2.132,0-3.134,1.567-3.126,3.109
	c0.008,1.533,0.935,3.042,3.126,3.042c0.851,0,1.635-0.278,2.242-0.876l-0.759-0.767C94.592,55.522,94.01,55.732,93.496,55.732z
	 M97.355,56.642h4.415v-1.095h-3.312v-1.331h3.194v-1.036h-3.194v-1.356h3.312v-1.079h-4.415V56.642z M106.151,53.036
	c-0.708-0.084-1.314-0.228-1.314-0.742c0-0.438,0.396-0.784,1.221-0.784c0.64,0,1.197,0.32,1.399,0.657l0.885-0.455
	c-0.446-0.91-1.398-1.171-2.317-1.171c-1.087,0.008-2.284,0.505-2.284,1.719c0,1.323,1.112,1.643,2.317,1.786
	c0.784,0.084,1.365,0.312,1.365,0.868c0,0.64-0.657,0.885-1.357,0.885c-0.716,0-1.399-0.286-1.66-0.935l-0.927,0.48
	c0.438,1.079,1.365,1.449,2.57,1.449c1.314,0,2.478-0.565,2.478-1.879C108.528,53.508,107.381,53.188,106.151,53.036z
	 M82.644,55.336l-1.778-4.592h-1.247l2.452,5.924h1.154l2.452-5.924h-1.247L82.644,55.336z M87.38,56.642h1.104v-5.898H87.38V56.642
	z M67.04,56.642h4.416v-1.095h-3.312v-1.331h3.194v-1.036h-3.194v-1.356h3.312v-1.079H67.04V56.642z M62.811,53.036
	c-0.708-0.084-1.314-0.228-1.314-0.742c0-0.438,0.396-0.784,1.221-0.784c0.64,0,1.197,0.32,1.399,0.657l0.885-0.455
	c-0.446-0.91-1.398-1.171-2.317-1.171c-1.087,0.008-2.284,0.505-2.284,1.719c0,1.323,1.112,1.643,2.317,1.786
	c0.784,0.084,1.365,0.312,1.365,0.868c0,0.64-0.657,0.885-1.357,0.885c-0.716,0-1.399-0.286-1.66-0.935l-0.927,0.48
	c0.438,1.079,1.365,1.449,2.57,1.449c1.314,0,2.478-0.565,2.478-1.879C65.187,53.508,64.041,53.188,62.811,53.036z M31.722,34.536
	h14.332l3.006,4.767h5.344l-11.963-19.13c-0.365-0.587-0.8-1.073-1.305-1.457c-0.507-0.384-1.225-0.577-2.156-0.577
	c-0.952,0-1.681,0.193-2.186,0.577c-0.507,0.385-0.942,0.871-1.306,1.457l-12.024,19.13h5.314L31.722,34.536z M38.888,22.815
	l5.01,8.168H33.878L38.888,22.815z M79.741,36.783l-8.925-14.271H58.87c-0.709,0-1.23,0.136-1.564,0.41
	c-0.334,0.273-0.501,0.825-0.501,1.655v0.668c0,0.648,0.152,1.108,0.456,1.381c0.304,0.274,0.83,0.41,1.579,0.41h9.686
	c1.154,0,2.13,0.096,2.93,0.288c0.8,0.193,1.452,0.501,1.958,0.926c0.506,0.425,0.87,0.972,1.094,1.64
	c0.222,0.668,0.334,1.468,0.334,2.399v1.64c0,0.972-0.112,1.797-0.334,2.475c-0.223,0.679-0.588,1.23-1.094,1.655
	c-0.506,0.425-1.159,0.739-1.958,0.941c-0.799,0.202-1.776,0.304-2.93,0.304H56.832l5.308,8.487L79.741,36.783z M68.283,35.386
	c0.83,0,1.427-0.116,1.792-0.349c0.364-0.233,0.546-0.703,0.546-1.412v-1.123c0-0.648-0.182-1.108-0.546-1.382
	c-0.365-0.273-0.952-0.41-1.761-0.41h-9.868c-1.154,0-2.11-0.106-2.87-0.319c-0.759-0.213-1.362-0.536-1.807-0.971
	c-0.445-0.435-0.754-0.982-0.926-1.64c-0.172-0.657-0.258-1.432-0.258-2.323v-1.032c0-1.052,0.111-1.953,0.334-2.702
	c0.222-0.749,0.566-1.351,1.032-1.807c0.466-0.455,1.073-0.79,1.822-1.002c0.749-0.213,1.639-0.319,2.672-0.319h9.92l-5.405-8.643
	L45.36,20.959l9.022,14.427H68.283z"/>
</svg>
