<svg xmlns="http://www.w3.org/2000/svg" viewBox="0 0 64 80" x="0px" y="0px"><g><path d="M32,60A28,28,0,1,1,60,32,28,28,0,0,1,32,60ZM32,6A26,26,0,1,0,58,32,26,26,0,0,0,32,6Z"/><path d="M32,53A21,21,0,1,1,53,32,21,21,0,0,1,32,53Zm0-40A19,19,0,1,0,51,32,19,19,0,0,0,32,13Z"/><path d="M32,9a1,1,0,0,1-1-1V2a1,1,0,0,1,2,0V8A1,1,0,0,1,32,9Z"/><path d="M32,63a1,1,0,0,1-1-1V56a1,1,0,0,1,2,0v6A1,1,0,0,1,32,63Z"/><path d="M8,33H2a1,1,0,0,1,0-2H8a1,1,0,0,1,0,2Z"/><path d="M62,33H56a1,1,0,0,1,0-2h6a1,1,0,0,1,0,2Z"/><path d="M32,37a8,8,0,0,1-8-8V20a1,1,0,0,1,1-1H39a1,1,0,0,1,1,1v9A8,8,0,0,1,32,37ZM26,21v8a6,6,0,0,0,12,0V21Z"/><path d="M32,41a1,1,0,0,1-1-1V36a1,1,0,0,1,2,0v4A1,1,0,0,1,32,41Z"/><path d="M37,47H27a1,1,0,0,1-1-1V40a1,1,0,0,1,1-1H37a1,1,0,0,1,1,1v6A1,1,0,0,1,37,47Zm-9-2h8V41H28Z"/><path d="M38,47H26a1,1,0,0,1,0-2H38a1,1,0,0,1,0,2Z"/><path d="M39,33a1,1,0,0,1-1-1V25.5a3.5,3.5,0,0,1,7,0V27A6,6,0,0,1,39,33Zm2.5-9A1.5,1.5,0,0,0,40,25.5v5.37A4,4,0,0,0,43,27V25.5A1.5,1.5,0,0,0,41.5,24Z"/><path d="M25,33a6,6,0,0,1-6-6V25.5a3.5,3.5,0,0,1,7,0V32A1,1,0,0,1,25,33Zm-2.5-9A1.5,1.5,0,0,0,21,25.5V27a4,4,0,0,0,3,3.87V25.5A1.5,1.5,0,0,0,22.5,24Z"/></g></svg>
