<svg xmlns="http://www.w3.org/2000/svg" viewBox="0 0 64 80" x="0px" y="0px"><path d="M32,0A32,32,0,1,0,64,32,32,32,0,0,0,32,0Zm0,62A30,30,0,1,1,62,32,30,30,0,0,1,32,62Z"/><path d="M32,20c-.9,0-10.35-.05-21.7,11.29a1,1,0,0,0,0,1.41C21.06,43.48,30.13,44,31.79,44h.42c1.67,0,10.73-.53,21.5-11.3a1,1,0,0,0,0-1.41C42.29,19.87,32.79,20,32,20ZM12.43,32A41.31,41.31,0,0,1,22.5,24.7a11.92,11.92,0,0,0,0,14.61A41.38,41.38,0,0,1,12.43,32ZM32,42A10,10,0,1,1,42,32,10,10,0,0,1,32,42Zm9.5-2.69a11.92,11.92,0,0,0,0-14.62A41.39,41.39,0,0,1,51.57,32,41.34,41.34,0,0,1,41.5,39.31Z"/><path d="M32,25a7,7,0,0,0,0,14,1,1,0,0,0,1-1V33h5a1,1,0,0,0,1-1A7,7,0,0,0,32,25Zm0,6a1,1,0,0,0-1,1v4.9A5,5,0,1,1,36.9,31Z"/><path d="M7,32H5A27,27,0,0,0,32,59V57A25,25,0,0,1,7,32Z"/><path d="M57,32h2A27,27,0,0,0,32,5V7A25,25,0,0,1,57,32Z"/><rect x="57" y="34" width="2" height="2"/><rect x="5" y="28" width="2" height="2"/></svg>
